<svg version="1.1" xmlns="http://www.w3.org/2000/svg" xmlns:xlink="http://www.w3.org/1999/xlink">
  <defs>
    <symbol id="logo" viewBox="0 0 298 60">
      <title>logo</title>
      <path d="M97.1237075,56.4 L74.6391776,56.4 L97.4605544,3.68571429 L97.4605544,0 L71.6917673,0 L71.6917673,3.6 L93.4183917,3.6 L70.5970149,56.4 L70.5970149,60 L97.1237075,60 L97.1237075,56.4 Z M126.965919,46.7332382 L129.873588,60 L133.695096,60 L120.735199,0 L115.16909,0 L102.458422,60 L105.947625,60 L108.855294,46.7332382 L126.965919,46.7332382 Z M118.30644,4.375 L126.823028,43.125 L109.955224,43.125 L118.30644,4.375 Z M139.942431,0 L139.942431,60 L143.798613,60 L143.798613,33.1714286 L149.918207,33.1714286 C156.624611,33.1714286 160.899943,35.4 160.899943,43.3714286 L160.899943,52.8 C160.899943,56.0571429 161.151434,58.2 162.157394,60 L166.181237,60 C164.923786,58.0285714 164.756126,55.2857143 164.756126,52.8 L164.756126,43.4571429 C164.756126,36.9428571 162.325054,32.5714286 156.289291,31.2 C162.073564,29.8285714 164.756126,25.8 164.756126,18.7714286 L164.756126,13.5428571 C164.756126,5.05714286 161.151434,0 152.181618,0 L139.942431,0 Z M143.690832,29.375 L143.690832,3.75 L151.876678,3.75 C158.160761,3.75 160.558635,7.55569307 160.558635,13.8985149 L160.558635,19.480198 C160.558635,27.429868 156.58974,29.375 149.809545,29.375 L143.690832,29.375 Z M196.311335,46.7332382 L199.219004,60 L203.040512,60 L190.080615,0 L184.514506,0 L171.803838,60 L175.293041,60 L178.20071,46.7332382 L196.311335,46.7332382 Z M187.027123,4.375 L195.54371,43.125 L178.675906,43.125 L187.027123,4.375 Z" id="light" fill="#32CCB6"></path>
      <path d="M207.413646,60 L231.778252,60 L231.778252,51.4285714 L216.623634,51.4285714 L216.623634,0 L207.413646,0 L207.413646,60 Z M255.620353,0 L242.296492,0 L233.027719,60 L241.386166,60 L242.958547,49.1142857 L254.130729,49.1142857 L255.70311,60 L264.889126,60 L255.620353,0 Z M248.646055,10.625 L253.01919,41.25 L244.272921,41.25 L248.646055,10.625 Z M283.612756,0 L269.886994,0 L269.886994,60 L284.191553,60 C293.286937,60 298,55.0285714 298,45.7714286 L298,40.8857143 C298,34.5428571 296.098238,30 291.219804,28.0285714 C295.271385,26.0571429 297.090462,22.1142857 297.090462,15.9428571 L297.090462,13.8 C297.090462,4.54285714 293.038881,0 283.612756,0 L283.612756,0 Z M282.714854,33.125 C286.879744,33.125 288.628998,34.8110465 288.628998,40.2906977 L288.628998,45.4331395 C288.628998,49.8168605 286.963042,51.25 283.881023,51.25 L278.633262,51.25 L278.633262,33.125 L282.714854,33.125 Z M283.189805,8.75 C286.542732,8.75 288.004264,10.6081081 288.004264,14.8310811 L288.004264,18.125 C288.004264,22.8547297 285.854952,24.375 282.33008,24.375 L278.633262,24.375 L278.633262,8.75 L283.189805,8.75 Z" id="dark" fill="#3D4C4A"></path>
      <rect id="dark" fill="#3D4D4A" x="0" y="0" width="15" height="15"></rect>
      <path d="M22.5,0 L37.5,0 L37.5,15 L22.5,15 L22.5,0 Z M45,0 L60,0 L60,15 L45,15 L45,0 Z M19.2857143,30 L29.892316,19.3933983 L40.4989177,30 L29.892316,40.6066017 L19.2857143,30 Z M0,45 L15,45 L15,60 L0,60 L0,45 Z M22.5,45 L37.5,45 L37.5,60 L22.5,60 L22.5,45 Z M45,45 L60,45 L60,60 L45,60 L45,45 Z" id="light" fill="#32CCB6"></path>
    </symbol>


    <symbol id="flask" viewBox="0 0 327 510">
      <path d="M258.604599,355.707673 L321.637586,464.101098 C334.130546,485.584368 324.108842,503 299.264627,503 L43.7315254,503 C18.8823215,503 8.86572462,485.584165 21.358566,464.101098 L96.2724879,335.276858 L258.604599,355.707673 Z" id="flask__liquid" fill="#EEEEEE"></path>
      <path d="M126.400968,283.467015 C130.565517,276.30553 133.941551,263.779208 133.941551,255.505929 L133.941549,173 L126.419241,173 C122.276938,173 118.918938,169.633707 118.918938,165.5 L118.918938,165.5 C118.918938,161.357864 122.26916,158 126.418397,158 L216.577749,158 C220.719586,158 224.077208,161.366293 224.077208,165.5 L224.077208,165.5 C224.077208,169.642136 220.724539,173 216.576906,173 L209.054599,173 L209.054601,255.505929 C209.054601,263.786926 212.43046,276.305229 216.595185,283.467015 L321.637586,464.101098 C334.130546,485.584368 324.108842,503 299.264627,503 L43.7315254,503 C18.8823215,503 8.86572462,485.584165 21.358566,464.101098 L126.400968,283.467015 Z" id="flask__outline" stroke="#E3E3E3" stroke-width="15" fill="transparent"></path>
      <circle id="flask__bubble" opacity="0.1" fill="#32CCB6" cx="199" cy="329" r="12"></circle>
      <circle id="flask__bubble" opacity="0.1" fill="#32CCB6" cx="166" cy="303" r="14"></circle>
      <circle id="flask__bubble" opacity="0.1" fill="#32CCB6" cx="165" cy="246" r="15"></circle>
      <circle id="flask__bubble" opacity="0.1" fill="#32CCB6" cx="172" cy="200" r="17"></circle>
      <circle id="flask__bubble" opacity="0.15" fill="#32CCB6" cx="238" cy="116" r="27"></circle>
      <circle id="flask__bubble" opacity="0.2" fill="#32CCB6" cx="170" cy="32" r="32"></circle>
      <circle id="flask__bubble" opacity="0.3" fill="#32CCB6" cx="42" cy="219" r="42"></circle>
    </symbol>
  </defs>
</svg>
