<svg version="1.1" xmlns="http://www.w3.org/2000/svg" xmlns:xlink="http://www.w3.org/1999/xlink">
  <defs>
    <symbol id="logo" viewBox="0 0 173 61">
      <title>logo</title>
      <g id="logo-words">
      	<path fill="#ECEDEB" d="M0.9,42.3L11.4,26H2.1C2.1,25.5,2,25,2,24.4c0-0.5,0-1.1,0.1-1.5h15l0.2,0.5L6.7,39.8h9.9
      		c0.1,0.5,0.1,1.1,0.1,1.6c0,0.5,0,1-0.1,1.5H1.1L0.9,42.3z M32.2,29.7c0-1.5-0.4-2.6-1.2-3.2s-1.9-0.9-3.4-0.9
      		c-0.9,0-1.8,0.1-2.6,0.2c-0.8,0.1-1.6,0.3-2.3,0.6c-0.5-0.9-0.7-1.9-0.7-3.1c0.9-0.3,1.9-0.5,2.9-0.7c1.1-0.2,2.1-0.2,3.1-0.2
      		c2.6,0,4.6,0.6,5.9,1.8c1.3,1.2,2,3.1,2,5.7v12.5c-0.9,0.2-2,0.4-3.3,0.6c-1.3,0.2-2.6,0.3-4,0.3c-1.3,0-2.4-0.1-3.4-0.4
      		c-1-0.2-1.9-0.6-2.6-1.1c-0.7-0.5-1.3-1.2-1.7-2c-0.4-0.8-0.6-1.8-0.6-2.9c0-1.1,0.2-2.1,0.7-2.9c0.5-0.8,1.1-1.5,1.8-2.1
      		c0.8-0.6,1.7-1,2.7-1.2c1-0.3,2.1-0.4,3.2-0.4c0.8,0,1.5,0,2,0.1c0.5,0,1,0.1,1.3,0.1V29.7z M32.2,33.5c-0.4-0.1-0.9-0.1-1.5-0.2
      		c-0.6-0.1-1.1-0.1-1.5-0.1c-1.6,0-2.8,0.3-3.7,0.9c-0.8,0.6-1.3,1.5-1.3,2.7c0,0.8,0.1,1.4,0.4,1.8c0.3,0.4,0.6,0.8,1.1,1
      		s0.9,0.4,1.4,0.4c0.5,0.1,1,0.1,1.5,0.1c0.6,0,1.2,0,1.9-0.1c0.6-0.1,1.2-0.2,1.7-0.3V33.5z M42.2,22.9c0.3-0.1,0.6-0.1,0.8-0.1
      		c0.3,0,0.5,0,0.8,0c0.3,0,0.6,0,0.9,0c0.3,0,0.5,0.1,0.8,0.1c0.1,0.4,0.2,0.9,0.2,1.5c0.1,0.6,0.1,1.2,0.1,1.6
      		c0.5-0.9,1.3-1.6,2.2-2.3c0.9-0.6,2-1,3.4-1c0.2,0,0.4,0,0.6,0c0.2,0,0.4,0,0.6,0.1c0.1,0.2,0.1,0.5,0.1,0.7c0,0.3,0,0.5,0,0.8
      		c0,0.3,0,0.6-0.1,1c0,0.3-0.1,0.7-0.1,1c-0.2-0.1-0.4-0.1-0.6-0.1c-0.2,0-0.4,0-0.5,0c-0.7,0-1.4,0.1-2,0.3c-0.6,0.2-1.2,0.5-1.7,1
      		c-0.5,0.5-0.9,1.2-1.2,2c-0.3,0.9-0.4,2-0.4,3.3v9.9c-0.3,0.1-0.6,0.1-1,0.1s-0.7,0-1,0c-0.3,0-0.6,0-1,0s-0.7-0.1-1-0.1V22.9z
      		 M67.2,29.7c0-1.5-0.4-2.6-1.2-3.2s-1.9-0.9-3.4-0.9c-0.9,0-1.8,0.1-2.6,0.2c-0.8,0.1-1.6,0.3-2.3,0.6c-0.5-0.9-0.7-1.9-0.7-3.1
      		c0.9-0.3,1.9-0.5,2.9-0.7c1.1-0.2,2.1-0.2,3.1-0.2c2.6,0,4.6,0.6,5.9,1.8c1.3,1.2,2,3.1,2,5.7v12.5c-0.9,0.2-2,0.4-3.3,0.6
      		c-1.3,0.2-2.6,0.3-4,0.3c-1.3,0-2.4-0.1-3.4-0.4c-1-0.2-1.9-0.6-2.6-1.1c-0.7-0.5-1.3-1.2-1.7-2c-0.4-0.8-0.6-1.8-0.6-2.9
      		c0-1.1,0.2-2.1,0.7-2.9c0.5-0.8,1.1-1.5,1.8-2.1c0.8-0.6,1.7-1,2.7-1.2c1-0.3,2.1-0.4,3.2-0.4c0.8,0,1.5,0,2,0.1
      		c0.5,0,1,0.1,1.3,0.1V29.7z M67.2,33.5c-0.4-0.1-0.9-0.1-1.5-0.2c-0.6-0.1-1.1-0.1-1.5-0.1c-1.6,0-2.8,0.3-3.7,0.9
      		c-0.8,0.6-1.3,1.5-1.3,2.7c0,0.8,0.1,1.4,0.4,1.8c0.3,0.4,0.6,0.8,1.1,1s0.9,0.4,1.4,0.4c0.5,0.1,1,0.1,1.5,0.1
      		c0.6,0,1.2,0,1.9-0.1c0.6-0.1,1.2-0.2,1.7-0.3V33.5z"/>
      	<path fill="#ECEDEB" d="M124,14.3c0.3-0.1,0.6-0.1,1-0.1c0.4,0,0.7,0,1,0c0.3,0,0.6,0,1,0c0.4,0,0.7,0.1,1,0.1v22.5
      		c0,0.7,0.1,1.3,0.2,1.7c0.1,0.4,0.3,0.7,0.5,1c0.2,0.2,0.5,0.4,0.8,0.4c0.3,0.1,0.6,0.1,1,0.1c0.2,0,0.5,0,0.8,0
      		c0.3,0,0.6-0.1,0.8-0.1c0.2,0.9,0.4,1.9,0.4,3c-0.4,0.1-0.8,0.2-1.3,0.3c-0.5,0-1,0.1-1.4,0.1c-0.8,0-1.5-0.1-2.1-0.3
      		c-0.6-0.2-1.2-0.5-1.7-0.9c-0.5-0.4-0.9-1-1.2-1.7c-0.3-0.7-0.4-1.6-0.4-2.6V14.3z M145.5,29.7c0-1.5-0.4-2.6-1.2-3.2
      		c-0.8-0.6-1.9-0.9-3.4-0.9c-0.9,0-1.8,0.1-2.6,0.2c-0.8,0.1-1.6,0.3-2.3,0.6c-0.5-0.9-0.7-1.9-0.7-3.1c0.9-0.3,1.9-0.5,2.9-0.7
      		c1.1-0.2,2.1-0.2,3.1-0.2c2.6,0,4.6,0.6,5.9,1.8c1.4,1.2,2,3.1,2,5.7v12.5c-0.9,0.2-2,0.4-3.3,0.6c-1.3,0.2-2.6,0.3-4,0.3
      		c-1.3,0-2.4-0.1-3.4-0.4c-1-0.2-1.9-0.6-2.6-1.1c-0.7-0.5-1.3-1.2-1.7-2c-0.4-0.8-0.6-1.8-0.6-2.9c0-1.1,0.2-2.1,0.7-2.9
      		c0.5-0.8,1.1-1.5,1.8-2.1c0.8-0.6,1.7-1,2.7-1.2c1-0.3,2.1-0.4,3.2-0.4c0.8,0,1.5,0,2,0.1c0.5,0,1,0.1,1.3,0.1V29.7z M145.5,33.5
      		c-0.4-0.1-0.9-0.1-1.5-0.2c-0.6-0.1-1.1-0.1-1.5-0.1c-1.6,0-2.8,0.3-3.7,0.9c-0.8,0.6-1.3,1.5-1.3,2.7c0,0.8,0.1,1.4,0.4,1.8
      		c0.3,0.4,0.6,0.8,1.1,1s0.9,0.4,1.4,0.4c0.5,0.1,1,0.1,1.5,0.1c0.6,0,1.2,0,1.9-0.1c0.6-0.1,1.2-0.2,1.7-0.3V33.5z M154.3,14.3
      		c0.3-0.1,0.6-0.1,1-0.1c0.4,0,0.7,0,1,0c0.3,0,0.6,0,1,0c0.4,0,0.7,0.1,1,0.1v11c0.5-0.8,1.2-1.5,2.2-2c1-0.6,2.2-0.9,3.6-0.9
      		c1.2,0,2.3,0.2,3.3,0.6c1,0.4,1.9,1,2.6,1.8c0.7,0.8,1.3,1.9,1.7,3.1c0.4,1.3,0.6,2.7,0.6,4.5c0,3.4-1,6.1-2.9,8
      		c-1.9,1.9-4.7,2.9-8.4,2.9c-1.1,0-2.3-0.1-3.5-0.3c-1.2-0.2-2.2-0.5-3.1-0.8V14.3z M158.1,39.7c0.5,0.2,1,0.3,1.5,0.3
      		c0.5,0.1,1.1,0.1,1.7,0.1c1,0,1.9-0.1,2.7-0.4c0.8-0.3,1.5-0.8,2.1-1.4c0.6-0.6,1.1-1.4,1.4-2.3c0.4-0.9,0.5-2.1,0.5-3.4
      		c0-2.2-0.4-3.8-1.1-5c-0.8-1.2-2-1.8-3.7-1.8c-0.6,0-1.2,0.1-1.8,0.3c-0.6,0.2-1.1,0.5-1.6,0.9s-0.9,1-1.2,1.7
      		c-0.3,0.7-0.4,1.6-0.4,2.6V39.7z"/>
      </g>
      <g id="logo-flask">
      	<path fill="#59A426" d="M87.8,21.6v29.8c0,2.6,2.1,4.8,4.8,4.8h10.7c2.6,0,4.8-2.1,4.8-4.8V21.6C105.6,19.4,90.9,26.3,87.8,21.6z
      		 M93.7,32.9c-1.3,0-2.4-1.1-2.4-2.4c0-1.3,1.1-2.4,2.4-2.4c1.3,0,2.4,1.1,2.4,2.4C96.1,31.8,95,32.9,93.7,32.9z M103.8,38.2
      		c-1,0-1.8-0.8-1.8-1.8s0.8-1.8,1.8-1.8s1.8,0.8,1.8,1.8S104.8,38.2,103.8,38.2z M103.8,28.7c-1.3,0-2.4-1.1-2.4-2.4
      		c0-1.3,1.1-2.4,2.4-2.4c1.3,0,2.4,1.1,2.4,2.4C106.2,27.6,105.1,28.7,103.8,28.7z"/>
      	<path id="path-5" fill="#59A426" d="M103.8,16.2c-1.6,0-3-1.3-3-3s1.3-3,3-3s3,1.3,3,3S105.4,16.2,103.8,16.2z M96.1,8.5
      		c-1.3,0-2.4-1.1-2.4-2.4s1.1-2.4,2.4-2.4c1.3,0,2.4,1.1,2.4,2.4S97.4,8.5,96.1,8.5z M96.7,16.2c0,2.3-1.9,4.2-4.2,4.2
      		c-2.3,0-4.2-1.9-4.2-4.2c0-2.3,1.9-4.2,4.2-4.2C94.8,12,96.7,13.9,96.7,16.2z"/>
      	<path id="path-4" fill="#59A426" d="M104.4,0.7c6,0,8.9,1.9,8.9,7.7v15.5c0,3.9,1.9,5.4,5.4,5.4v2.4c-3.5,0-5.4,2.2-5.4,6v14.9
      		c0,5.9-2.9,7.7-8.9,7.7v-2.4c4.4,0,6-1.3,6-5.4V37.6c0-4.9,0-6.3,3.6-7.1c-3.6-0.9-3.6-1.7-3.6-6.6V8.5c0-4.1-1.5-5.4-6-5.4V0.7z"
      		/>
      	<path id="path-3" fill="#59A426" d="M91.4,0.7c-6,0-8.9,1.9-8.9,7.7v15.5c0,3.9-1.9,5.4-5.4,5.4v2.4c3.5,0,5.4,2.2,5.4,6v14.9
      		c0,5.9,2.9,7.7,8.9,7.7v-2.4c-4.4,0-6-1.3-6-5.4V37.6c0-4.9,0-6.3-3.6-7.1c3.6-0.9,3.6-1.7,3.6-6.6V8.5c0-4.1,1.5-5.4,6-5.4V0.7z"
      		/>
      </g>
    </symbol>

    <symbol id="facebook" viewBox="0 0 20 20">
      <path d="M17.8,0H2.2C1,0,0,1,0,2.2v15.6C0,19,1,20,2.2,20H10v-7.8H7.8V9.5H10V7.2c0-2.4,1.3-4.1,4.2-4.1l2,0V6h-1.3
      	c-1.1,0-1.5,0.8-1.5,1.6v1.9h2.9l-0.6,2.7h-2.2V20h4.4c1.2,0,2.2-1,2.2-2.2V2.2C20,1,19,0,17.8,0z"/>
    </symbol>

    <symbol id="twitter" viewBox="0 0 20 20">
      <path d="M0,18.3C0,19.3,0.7,20,1.7,20h16.7c0.9,0,1.7-0.7,1.7-1.7V1.7C20,0.7,19.3,0,18.3,0H1.7C0.7,0,0,0.7,0,1.7V18.3z M12.9,10.4
      	H8.8v1.2c0,0.5,0.4,0.8,0.8,0.8h3.3c0.9,0,1.7,0.7,1.7,1.7c0,0.9-0.7,1.7-1.7,1.7H8.8c-1.8,0-3.3-1.5-3.3-3.3V5.4
      	c0-0.9,0.7-1.7,1.7-1.7s1.7,0.7,1.7,1.7v1.7h4.2c0.9,0,1.7,0.7,1.7,1.7S13.8,10.4,12.9,10.4z"/>
    </symbol>

    <symbol id="location" viewBox="0 0 20 20">
      <path d="M19.4,18.1L18,14h-1.5l0.8,4H2.7l0.8-4H2l-1.4,4.1C0.3,19.1,0.9,20,2,20h16C19.1,20,19.7,19.1,19.4,18.1z M15,5
      	c0-2.8-2.2-5-5-5S5,2.2,5,5c0,4.8,5,10,5,10S15,9.8,15,5z M7.3,5.1c0-1.5,1.2-2.7,2.7-2.7s2.7,1.2,2.7,2.7c0,1.5-1.2,2.7-2.7,2.7
      	S7.3,6.6,7.3,5.1z"/>
    </symbol>
  </defs>
</svg>
