<?xml version="1.0" encoding="utf-8"?>
<!-- Generator: Adobe Illustrator 18.1.1, SVG Export Plug-In . SVG Version: 6.00 Build 0)  -->
<svg version="1.1" id="Layer_1" xmlns="http://www.w3.org/2000/svg" xmlns:xlink="http://www.w3.org/1999/xlink" x="0px" y="0px"
	 viewBox="0 0 20 20" enable-background="new 0 0 20 20" xml:space="preserve">
<path d="M17.8,0H2.2C1,0,0,1,0,2.2v15.6C0,19,1,20,2.2,20H10v-7.8H7.8V9.5H10V7.2c0-2.4,1.3-4.1,4.2-4.1l2,0V6h-1.3
	c-1.1,0-1.5,0.8-1.5,1.6v1.9h2.9l-0.6,2.7h-2.2V20h4.4c1.2,0,2.2-1,2.2-2.2V2.2C20,1,19,0,17.8,0z"/>
</svg>
