<?xml version="1.0" encoding="utf-8"?>
<!-- Generator: Adobe Illustrator 18.1.1, SVG Export Plug-In . SVG Version: 6.00 Build 0)  -->
<svg version="1.1" id="Layer_1" xmlns="http://www.w3.org/2000/svg" xmlns:xlink="http://www.w3.org/1999/xlink" x="0px" y="0px"
	 viewBox="0 0 20 20" enable-background="new 0 0 20 20" xml:space="preserve">
<path d="M5.1,15.9C5.1,16,5,16,4.9,15.9c-0.1-0.1-0.1-0.2-0.1-0.2c0.1-0.1,0.2-0.1,0.3,0C5.2,15.8,5.2,15.9,5.1,15.9z M4.6,15.1
	c0.1,0.1,0.1,0.2,0,0.2c-0.1,0.1-0.1,0-0.2-0.1c-0.1-0.1-0.1-0.2,0-0.2C4.4,15,4.5,15,4.6,15.1L4.6,15.1z M3.8,14.4
	c0,0.1-0.1,0.1-0.2,0c-0.1,0-0.1-0.1-0.1-0.2c0,0,0.1-0.1,0.2,0C3.8,14.3,3.8,14.3,3.8,14.4z M4.2,14.8c-0.1,0.1-0.1,0-0.2,0
	c-0.1-0.1-0.1-0.2,0-0.2c0.1-0.1,0.1,0,0.2,0C4.2,14.7,4.3,14.8,4.2,14.8z M5.9,16.3c0,0.1-0.1,0.1-0.2,0.1c-0.1,0-0.2-0.1-0.2-0.2
	c0-0.1,0.1-0.1,0.2-0.1C5.8,16.1,5.9,16.2,5.9,16.3L5.9,16.3z M6.7,16.3c0,0.1-0.1,0.1-0.2,0.1c-0.1,0-0.2,0-0.2-0.1
	c0-0.1,0.1-0.1,0.2-0.1C6.6,16.2,6.7,16.2,6.7,16.3z M7.4,16.2c0,0.1,0,0.1-0.2,0.2c-0.1,0-0.2,0-0.2-0.1c0-0.1,0-0.2,0.2-0.2
	C7.4,16.1,7.4,16.1,7.4,16.2L7.4,16.2z M20,3.8v12.5c0,1-0.4,1.9-1.1,2.7c-0.7,0.7-1.6,1.1-2.7,1.1h-2.9c-0.1,0-0.2,0-0.3,0
	c-0.1,0-0.2,0-0.3-0.1c-0.1,0-0.2-0.1-0.2-0.2s-0.1-0.2-0.1-0.4v-3.1c0-0.8-0.2-1.5-0.7-1.8c0.5-0.1,0.9-0.1,1.3-0.2
	c0.4-0.1,0.8-0.3,1.2-0.5c0.4-0.2,0.8-0.5,1.1-0.9c0.3-0.3,0.5-0.8,0.7-1.4c0.2-0.6,0.3-1.2,0.3-2c0-1.1-0.3-1.9-1-2.7
	c0.3-0.8,0.3-1.7-0.1-2.7c-0.2-0.1-0.6,0-1.1,0.1c-0.5,0.2-0.9,0.4-1.2,0.6l-0.5,0.3c-0.8-0.2-1.6-0.3-2.5-0.3
	c-0.9,0-1.7,0.1-2.5,0.3C7.4,5.1,7.2,5,6.9,4.8S6.4,4.5,5.9,4.3S5,4.1,4.7,4.1C4.4,5.1,4.3,6,4.6,6.8c-0.7,0.7-1,1.6-1,2.7
	c0,0.7,0.1,1.4,0.3,2s0.4,1,0.7,1.4c0.3,0.3,0.6,0.6,1,0.9c0.4,0.2,0.8,0.4,1.2,0.5c0.4,0.1,0.8,0.2,1.3,0.2
	c-0.3,0.3-0.6,0.8-0.6,1.3C7.4,15.8,7.2,15.9,7,16C6.7,16,6.5,16,6.2,16c-0.3,0-0.6-0.1-0.9-0.3c-0.3-0.2-0.5-0.5-0.7-0.8
	c-0.2-0.3-0.4-0.5-0.6-0.7S3.5,14,3.4,13.9l-0.3,0c-0.2,0-0.3,0-0.4,0.1c-0.1,0-0.1,0.1-0.1,0.1c0,0.1,0.1,0.1,0.1,0.2
	c0.1,0.1,0.1,0.1,0.2,0.2L3,14.5c0.2,0.1,0.4,0.3,0.6,0.5c0.2,0.2,0.3,0.5,0.4,0.7L4.1,16c0.1,0.3,0.3,0.6,0.6,0.8
	C5,17,5.3,17.1,5.6,17.2s0.6,0.1,0.9,0.1s0.5,0,0.7,0l0.3-0.1c0,0.3,0,0.8,0,1.3c0,0.6,0,0.9,0,0.9c0,0.2,0,0.3-0.1,0.4
	C7.3,19.9,7.2,20,7.1,20c-0.1,0-0.2,0-0.4,0H3.8c-1,0-1.9-0.4-2.6-1.1C0.4,18.2,0,17.3,0,16.2V3.7c0-1,0.4-1.9,1.1-2.6S2.7,0,3.8,0
	h12.5c1,0,1.9,0.4,2.6,1.1S20,2.7,20,3.8L20,3.8z"/>
</svg>
