<?xml version="1.0" encoding="utf-8"?>
<!-- Generator: Adobe Illustrator 18.1.1, SVG Export Plug-In . SVG Version: 6.00 Build 0)  -->
<svg version="1.1" id="Layer_1" xmlns="http://www.w3.org/2000/svg" xmlns:xlink="http://www.w3.org/1999/xlink" x="0px" y="0px"
	 viewBox="0 0 20 20" enable-background="new 0 0 20 20" xml:space="preserve">
<path d="M0,18.3C0,19.3,0.7,20,1.7,20h16.7c0.9,0,1.7-0.7,1.7-1.7V1.7C20,0.7,19.3,0,18.3,0H1.7C0.7,0,0,0.7,0,1.7V18.3z M12.9,10.4
	H8.8v1.2c0,0.5,0.4,0.8,0.8,0.8h3.3c0.9,0,1.7,0.7,1.7,1.7c0,0.9-0.7,1.7-1.7,1.7H8.8c-1.8,0-3.3-1.5-3.3-3.3V5.4
	c0-0.9,0.7-1.7,1.7-1.7s1.7,0.7,1.7,1.7v1.7h4.2c0.9,0,1.7,0.7,1.7,1.7S13.8,10.4,12.9,10.4z"/>
</svg>
