<?xml version="1.0" encoding="utf-8"?>
<!-- Generator: Adobe Illustrator 18.1.1, SVG Export Plug-In . SVG Version: 6.00 Build 0)  -->
<svg version="1.1" id="Layer_1" xmlns="http://www.w3.org/2000/svg" xmlns:xlink="http://www.w3.org/1999/xlink" x="0px" y="0px"
	 viewBox="0 0 20 20" enable-background="new 0 0 20 20" xml:space="preserve">
<path d="M19.4,18.1L18,14h-1.5l0.8,4H2.7l0.8-4H2l-1.4,4.1C0.3,19.1,0.9,20,2,20h16C19.1,20,19.7,19.1,19.4,18.1z M15,5
	c0-2.8-2.2-5-5-5S5,2.2,5,5c0,4.8,5,10,5,10S15,9.8,15,5z M7.3,5.1c0-1.5,1.2-2.7,2.7-2.7s2.7,1.2,2.7,2.7c0,1.5-1.2,2.7-2.7,2.7
	S7.3,6.6,7.3,5.1z"/>
</svg>
